<svg width="36" height="110" viewBox="0 0 36 110" fill="none" xmlns="http://www.w3.org/2000/svg">
<path d="M30.228 11V4.352L28.848 4.676V3.5L30.876 2.6H31.824V11H30.228Z" fill="#9CA3AF"/>
<path d="M28.112 35V33.884C28.624 33.46 29.12 33.04 29.6 32.624C30.088 32.208 30.52 31.796 30.896 31.388C31.28 30.98 31.584 30.584 31.808 30.2C32.04 29.808 32.156 29.428 32.156 29.06C32.156 28.716 32.06 28.412 31.868 28.148C31.684 27.884 31.376 27.752 30.944 27.752C30.504 27.752 30.172 27.896 29.948 28.184C29.724 28.472 29.612 28.82 29.612 29.228H28.124C28.14 28.612 28.276 28.1 28.532 27.692C28.788 27.276 29.128 26.968 29.552 26.768C29.976 26.56 30.452 26.456 30.98 26.456C31.836 26.456 32.5 26.692 32.972 27.164C33.452 27.628 33.692 28.232 33.692 28.976C33.692 29.44 33.584 29.892 33.368 30.332C33.16 30.772 32.884 31.196 32.54 31.604C32.196 32.012 31.824 32.396 31.424 32.756C31.024 33.108 30.636 33.436 30.26 33.74H33.896V35H28.112Z" fill="#9CA3AF"/>
<path d="M30.752 60.192C30.016 60.192 29.3493 60.064 28.752 59.808C28.1547 59.5413 27.6747 59.136 27.312 58.592C26.9493 58.048 26.7573 57.3653 26.736 56.544H28.752C28.7627 57.088 28.9387 57.5467 29.28 57.92C29.632 58.2827 30.1227 58.464 30.752 58.464C31.3493 58.464 31.808 58.2987 32.128 57.968C32.448 57.6373 32.608 57.2213 32.608 56.72C32.608 56.1333 32.3947 55.6907 31.968 55.392C31.552 55.0827 31.0133 54.928 30.352 54.928H29.52V53.248H30.368C30.912 53.248 31.3653 53.12 31.728 52.864C32.0907 52.608 32.272 52.2293 32.272 51.728C32.272 51.312 32.1333 50.9813 31.856 50.736C31.5893 50.48 31.216 50.352 30.736 50.352C30.2133 50.352 29.8027 50.5067 29.504 50.816C29.216 51.1253 29.056 51.504 29.024 51.952H27.024C27.0667 50.9173 27.424 50.1013 28.096 49.504C28.7787 48.9067 29.6587 48.608 30.736 48.608C31.504 48.608 32.1493 48.7467 32.672 49.024C33.2053 49.2907 33.6053 49.648 33.872 50.096C34.1493 50.544 34.288 51.04 34.288 51.584C34.288 52.2133 34.112 52.7467 33.76 53.184C33.4187 53.6107 32.992 53.8987 32.48 54.048C33.1093 54.176 33.6213 54.4853 34.016 54.976C34.4107 55.456 34.608 56.064 34.608 56.8C34.608 57.4187 34.4587 57.984 34.16 58.496C33.8613 59.008 33.424 59.4187 32.848 59.728C32.2827 60.0373 31.584 60.192 30.752 60.192Z" fill="white"/>
<path d="M31.656 83V81.44H27.516V80.216L31.452 74.6H33.192V80.108H34.296V81.44H33.192V83H31.656ZM29.16 80.108H31.752V76.292L29.16 80.108Z" fill="#9CA3AF"/>
<path d="M30.828 107.144C30.212 107.144 29.68 107.036 29.232 106.82C28.792 106.604 28.444 106.308 28.188 105.932C27.94 105.548 27.796 105.116 27.756 104.636H29.256C29.328 104.98 29.504 105.268 29.784 105.5C30.064 105.724 30.412 105.836 30.828 105.836C31.276 105.836 31.64 105.672 31.92 105.344C32.208 105.016 32.352 104.608 32.352 104.12C32.352 103.616 32.208 103.216 31.92 102.92C31.64 102.624 31.284 102.476 30.852 102.476C30.492 102.476 30.18 102.564 29.916 102.74C29.652 102.916 29.464 103.136 29.352 103.4H27.876L28.596 98.6H33.252V99.944H29.748L29.364 101.888C29.54 101.696 29.78 101.54 30.084 101.42C30.388 101.292 30.728 101.228 31.104 101.228C31.704 101.228 32.204 101.364 32.604 101.636C33.004 101.9 33.308 102.252 33.516 102.692C33.724 103.124 33.828 103.596 33.828 104.108C33.828 104.692 33.7 105.212 33.444 105.668C33.196 106.124 32.844 106.484 32.388 106.748C31.94 107.012 31.42 107.144 30.828 107.144Z" fill="#9CA3AF"/>
<rect y="53" width="20" height="3" rx="1.5" fill="white"/>
</svg>
